<svg width="203" height="120" viewBox="0 0 203 120" fill="none" xmlns="http://www.w3.org/2000/svg">
<path fill-rule="evenodd" clip-rule="evenodd" d="M60 120C93.1371 120 120 93.1371 120 60C120 26.8629 93.1371 0 60 0C26.8629 0 0 26.8629 0 60C0 93.1371 26.8629 120 60 120ZM60 110C87.6142 110 110 87.6142 110 60C110 32.3858 87.6142 10 60 10C32.3858 10 10 32.3858 10 60C10 87.6142 32.3858 110 60 110Z" fill="#06022C"/>
<path d="M39 58C39 46.9543 47.9543 38 59 38H203V62C203 73.0457 194.046 82 183 82H59C47.9543 82 39 73.0457 39 62V58Z" fill="#0D083B"/>
<path d="M113.048 64.016H103.76L101.24 71H98.288L107.828 45.404H109.196L118.772 71H115.64L113.048 64.016ZM104.732 61.424H112.148L109.34 53.756L108.44 49.94H108.404L107.504 53.828L104.732 61.424ZM126.223 53V63.26C126.223 64.196 126.271 65.024 126.367 65.744C126.487 66.44 126.679 67.028 126.943 67.508C127.207 67.964 127.567 68.312 128.023 68.552C128.479 68.792 129.055 68.912 129.751 68.912C130.399 68.912 130.975 68.816 131.479 68.624C131.983 68.408 132.427 68.12 132.811 67.76C133.219 67.4 133.567 66.992 133.855 66.536C134.167 66.056 134.419 65.552 134.611 65.024V53H137.491V65.888C137.491 66.752 137.515 67.652 137.563 68.588C137.635 69.5 137.743 70.304 137.887 71H135.907L135.187 68.156H135.007C134.455 69.092 133.711 69.872 132.775 70.496C131.839 71.12 130.651 71.432 129.211 71.432C128.251 71.432 127.399 71.312 126.655 71.072C125.935 70.856 125.323 70.46 124.819 69.884C124.339 69.308 123.967 68.54 123.703 67.58C123.463 66.596 123.343 65.36 123.343 63.872V53H126.223ZM142.461 53H145.269V49.436L148.149 48.608V53H153.045V55.52H148.149V65.492C148.149 66.74 148.305 67.628 148.617 68.156C148.929 68.66 149.457 68.912 150.201 68.912C150.825 68.912 151.353 68.852 151.785 68.732C152.217 68.588 152.697 68.408 153.225 68.192L153.873 70.388C153.225 70.7 152.517 70.952 151.749 71.144C150.981 71.336 150.153 71.432 149.265 71.432C147.801 71.432 146.769 71.024 146.169 70.208C145.569 69.368 145.269 67.976 145.269 66.032V55.52H142.461V53ZM157.441 62C157.441 58.952 158.113 56.624 159.457 55.016C160.825 53.384 162.781 52.568 165.325 52.568C166.669 52.568 167.833 52.796 168.817 53.252C169.825 53.684 170.653 54.32 171.301 55.16C171.949 55.976 172.429 56.972 172.741 58.148C173.053 59.3 173.209 60.584 173.209 62C173.209 65.048 172.525 67.388 171.157 69.02C169.813 70.628 167.869 71.432 165.325 71.432C163.981 71.432 162.805 71.216 161.797 70.784C160.813 70.328 159.997 69.692 159.349 68.876C158.701 68.036 158.221 67.04 157.909 65.888C157.597 64.712 157.441 63.416 157.441 62ZM160.429 62C160.429 62.912 160.513 63.788 160.681 64.628C160.873 65.468 161.161 66.2 161.545 66.824C161.929 67.448 162.433 67.952 163.057 68.336C163.681 68.72 164.437 68.912 165.325 68.912C168.589 68.936 170.221 66.632 170.221 62C170.221 61.064 170.125 60.176 169.933 59.336C169.765 58.496 169.489 57.764 169.105 57.14C168.721 56.516 168.217 56.024 167.593 55.664C166.969 55.28 166.213 55.088 165.325 55.088C162.061 55.064 160.429 57.368 160.429 62ZM187.47 66.104C187.47 65.384 187.254 64.82 186.822 64.412C186.39 64.004 185.85 63.668 185.202 63.404C184.578 63.116 183.882 62.852 183.114 62.612C182.37 62.348 181.674 62.024 181.026 61.64C180.402 61.232 179.874 60.716 179.442 60.092C179.01 59.468 178.794 58.628 178.794 57.572C178.794 55.844 179.286 54.584 180.27 53.792C181.254 52.976 182.622 52.568 184.374 52.568C185.67 52.568 186.75 52.688 187.614 52.928C188.502 53.144 189.27 53.408 189.918 53.72L189.234 56.096C188.682 55.832 188.01 55.604 187.218 55.412C186.45 55.196 185.622 55.088 184.734 55.088C183.678 55.088 182.898 55.268 182.394 55.628C181.914 55.988 181.674 56.612 181.674 57.5C181.674 58.124 181.89 58.616 182.322 58.976C182.754 59.312 183.282 59.624 183.906 59.912C184.554 60.176 185.25 60.44 185.994 60.704C186.762 60.968 187.458 61.316 188.082 61.748C188.73 62.18 189.27 62.732 189.702 63.404C190.134 64.052 190.35 64.916 190.35 65.996C190.35 66.764 190.218 67.484 189.954 68.156C189.714 68.828 189.33 69.404 188.802 69.884C188.274 70.364 187.614 70.736 186.822 71C186.054 71.288 185.142 71.432 184.086 71.432C182.718 71.432 181.554 71.3 180.594 71.036C179.634 70.772 178.83 70.46 178.182 70.1L179.046 67.652C179.598 67.964 180.318 68.252 181.206 68.516C182.094 68.78 182.994 68.912 183.906 68.912C184.938 68.912 185.79 68.708 186.462 68.3C187.134 67.892 187.47 67.16 187.47 66.104Z" fill="#EFF2F5"/>
<path d="M82.5 60C82.5 72.4264 72.4264 82.5 60 82.5C47.5736 82.5 37.5 72.4264 37.5 60C37.5 47.5736 47.5736 37.5 60 37.5C72.4264 37.5 82.5 47.5736 82.5 60Z" fill="#1B1740" stroke="#EFF2F5"/>
<g filter="url(#filter0_d_0_1)">
<path d="M56 53L81.4996 52.85" stroke="#EFF2F5" stroke-width="0.3"/>
</g>
<path d="M68 60L55.5498 82.8253" stroke="#EFF2F5" stroke-width="0.3"/>
<path d="M64 67L38 67" stroke="#EFF2F5" stroke-width="0.3"/>
<path d="M56 67L43 45.048" stroke="#EFF2F5" stroke-width="0.3"/>
<path d="M77 75.0932L64 53.1412" stroke="#EFF2F5" stroke-width="0.3"/>
<path d="M51.8021 59.9524L65.3719 38.1263" stroke="#EFF2F5" stroke-width="0.3"/>
<path d="M52 59.9639L56 53H64L68 59.9639L64 67L56 66.9278L52 59.9639Z" fill="#B6B3D1"/>
<path d="M64.5 60C64.5 63.0794 62.2214 65.5 59.5 65.5C56.7786 65.5 54.5 63.0794 54.5 60C54.5 56.9206 56.7786 54.5 59.5 54.5C62.2214 54.5 64.5 56.9206 64.5 60Z" fill="#1B1740" stroke="#EFF2F5"/>
<path d="M64.5 60C64.5 63.0794 62.2214 65.5 59.5 65.5C56.7786 65.5 54.5 63.0794 54.5 60C54.5 56.9206 56.7786 54.5 59.5 54.5C62.2214 54.5 64.5 56.9206 64.5 60Z" fill="#1B1740" stroke="#EFF2F5"/>
<defs>
<filter id="filter0_d_0_1" x="51.9991" y="52.7" width="33.5013" height="8.44999" filterUnits="userSpaceOnUse" color-interpolation-filters="sRGB">
<feFlood flood-opacity="0" result="BackgroundImageFix"/>
<feColorMatrix in="SourceAlpha" type="matrix" values="0 0 0 0 0 0 0 0 0 0 0 0 0 0 0 0 0 0 127 0" result="hardAlpha"/>
<feOffset dy="4"/>
<feGaussianBlur stdDeviation="2"/>
<feComposite in2="hardAlpha" operator="out"/>
<feColorMatrix type="matrix" values="0 0 0 0 0 0 0 0 0 0 0 0 0 0 0 0 0 0 0.25 0"/>
<feBlend mode="normal" in2="BackgroundImageFix" result="effect1_dropShadow_0_1"/>
<feBlend mode="normal" in="SourceGraphic" in2="effect1_dropShadow_0_1" result="shape"/>
</filter>
</defs>
</svg>
